<?xml version="1.0" encoding="UTF-8" standalone="no"?>
<svg
   xmlns:dc="http://purl.org/dc/elements/1.1/"
   xmlns:cc="http://creativecommons.org/ns#"
   xmlns:rdf="http://www.w3.org/1999/02/22-rdf-syntax-ns#"
   xmlns:svg="http://www.w3.org/2000/svg"
   xmlns="http://www.w3.org/2000/svg"
   xmlns:sodipodi="http://sodipodi.sourceforge.net/DTD/sodipodi-0.dtd"
   xmlns:inkscape="http://www.inkscape.org/namespaces/inkscape"
   sodipodi:docname="pinkki.svg"
   inkscape:version="1.0beta2 (2b71d25, 2019-12-03)"
   version="1.1"
   id="svg3461"
   height="336.09421"
   width="361.66821">
  <defs
     id="defs3463" />
  <sodipodi:namedview
     inkscape:document-rotation="0"
     inkscape:window-maximized="0"
     inkscape:window-y="25"
     inkscape:window-x="20"
     inkscape:window-height="651"
     inkscape:window-width="980"
     fit-margin-bottom="0"
     fit-margin-right="0"
     fit-margin-left="0"
     fit-margin-top="0"
     showgrid="false"
     inkscape:current-layer="layer1"
     inkscape:document-units="px"
     inkscape:cy="210.04128"
     inkscape:cx="-92.005152"
     inkscape:zoom="0.29029174"
     inkscape:pageshadow="2"
     inkscape:pageopacity="0.0"
     borderopacity="1.0"
     bordercolor="#666666"
     pagecolor="#ffffff"
     id="base" />
  <metadata
     id="metadata3466">
    <rdf:RDF>
      <cc:Work
         rdf:about="">
        <dc:format>image/svg+xml</dc:format>
        <dc:type
           rdf:resource="http://purl.org/dc/dcmitype/StillImage" />
        <dc:title></dc:title>
      </cc:Work>
    </rdf:RDF>
  </metadata>
  <g
     transform="translate(-195.65474,-405.21836)"
     id="layer1"
     inkscape:groupmode="layer"
     inkscape:label="Layer 1">
    <g
       transform="matrix(7.3228097,0,0,7.4715804,-1965.5767,-4142.429)"
       id="g4782">
      <g
         id="g4499-9-0"
         transform="matrix(0.93479385,0,0,0.93479385,101.76897,56.867262)">
        <g
           id="text4602-2-3-8"
           style="font-style:normal;font-variant:normal;font-weight:normal;font-stretch:normal;font-size:53.8022px;line-height:125%;font-family:'Bebas Neue';-inkscape-font-specification:'Bebas Neue';letter-spacing:-1.32908px;word-spacing:0px;fill:#ffffff;fill-opacity:1;stroke:none"
           transform="matrix(1.0041657,0,0,0.7346238,34.184783,85.481737)">
          <path
             inkscape:connector-curvature="0"
             id="path4347-7-5"
             d="m 172.07054,717.21121 h 4.66975 v -29.71663 h -4.66975 v 29.71663" />
          <path
             inkscape:connector-curvature="0"
             id="path4349-4-7"
             d="m 186.73097,694.62657 c 0,8.49046 9.12725,9.63669 9.12725,15.74982 0,2.12261 -0.93396,2.88675 -2.41979,2.88675 -1.48583,0 -2.41978,-0.76414 -2.41978,-2.88675 v -2.12262 h -4.41504 v 1.82545 c 0,4.75466 2.37733,7.47161 6.96218,7.47161 4.58485,0 6.96218,-2.71695 6.96218,-7.47161 0,-8.49046 -9.12725,-9.63669 -9.12725,-15.74981 0,-2.12262 0.84905,-2.92922 2.33488,-2.92922 1.48583,0 2.33488,0.8066 2.33488,2.92922 v 1.23111 h 4.41504 v -0.93395 c 0,-4.75466 -2.33488,-7.47161 -6.87728,-7.47161 -4.54239,0 -6.87727,2.71695 -6.87727,7.47161" />
          <path
             inkscape:connector-curvature="0"
             id="path4351-3-63"
             d="m 215.06105,694.32941 c 0,-2.12261 0.93395,-2.92922 2.41977,-2.92922 1.48584,0 2.41979,0.80661 2.41979,2.92922 v 16.04698 c 0,2.12262 -0.93395,2.92921 -2.41979,2.92921 -1.48582,0 -2.41977,-0.80659 -2.41977,-2.92921 v -16.04698 m -4.66976,15.74981 c 0,4.75466 2.50469,7.47161 7.08953,7.47161 4.58486,0 7.08954,-2.71695 7.08954,-7.47161 v -15.45265 c 0,-4.75465 -2.50468,-7.47161 -7.08954,-7.47161 -4.58484,0 -7.08953,2.71696 -7.08953,7.47161 v 15.45265" />
        </g>
        <path
           sodipodi:nodetypes="ccccccc"
           inkscape:connector-curvature="0"
           id="path4450-36-0"
           d="m 240.34848,598.03037 -2.99846,3.38585 2.99846,3.44719 h 3.30204 l -2.94325,-3.44719 2.94325,-3.38585 z"
           style="fill:#ffffff;fill-opacity:1;stroke:none" />
        <path
           sodipodi:nodetypes="ccccccc"
           inkscape:connector-curvature="0"
           id="path4450-3-4-0"
           d="m 216.7653,598.03037 2.99847,3.38585 -2.99847,3.44719 h -3.30203 l 2.94324,-3.44719 -2.94324,-3.38585 z"
           style="fill:#ffffff;fill-opacity:1;stroke:none" />
      </g>
      <path
         id="rect3412"
         transform="matrix(0.92562021,0,0,0.92562021,-223.38396,154.87771)"
         d="m 560.1875,515.53125 v 23.3125 h 53.21875 v -23.3125 z m 2.5,2.625 h 4.0625 c 2.74373,0 4.09375,1.57696 4.09375,4.46875 v 2.34375 c 0,2.89178 -1.35002,4.46875 -4.09375,4.46875 h -1.3125 v 6.78125 h -2.75 z m 9.40625,0 h 2.75 v 18.0625 h -2.75 z m 4.71875,0 h 2.4375 v 10.8125 l 2.8125,-10.8125 H 585.5 v 18.0625 h -2.46875 v -13.0625 l -3.40625,13.0625 h -2.8125 z m 10.6875,0 h 2.75 v 7.875 l 3.59375,-7.875 h 2.71875 l -3.8125,8.0625 3.8125,10 H 593.75 l -2.65625,-7.1875 -0.84375,1.65625 v 5.53125 h -2.75 z m 10.3125,0 h 2.75 v 7.875 l 3.59375,-7.875 h 2.75 l -3.8125,8.0625 3.8125,10 h -2.8125 l -2.6875,-7.1875 -0.84375,1.65625 v 5.53125 h -2.75 z m 10.34375,0 h 2.75 v 18.0625 h -2.75 z M 565.4375,520.75 v 6.125 h 1.3125 c 0.873,0 1.34375,-0.42777 1.34375,-1.71875 v -2.71875 c 0,-1.29098 -0.47075,-1.6875 -1.34375,-1.6875 z"
         style="fill:#ffffff;fill-opacity:1;stroke:none"
         inkscape:connector-curvature="0" />
    </g>
  </g>
</svg>
