<?xml version="1.0" encoding="UTF-8" standalone="no"?>
<!-- Created with Inkscape (http://www.inkscape.org/) -->

<svg
   xmlns:dc="http://purl.org/dc/elements/1.1/"
   xmlns:cc="http://creativecommons.org/ns#"
   xmlns:rdf="http://www.w3.org/1999/02/22-rdf-syntax-ns#"
   xmlns:svg="http://www.w3.org/2000/svg"
   xmlns="http://www.w3.org/2000/svg"
   xmlns:sodipodi="http://sodipodi.sourceforge.net/DTD/sodipodi-0.dtd"
   xmlns:inkscape="http://www.inkscape.org/namespaces/inkscape"
   width="400"
   height="375"
   id="svg3461"
   version="1.1"
   inkscape:version="0.48.5 r10040"
   sodipodi:docname="New document 11">
  <defs
     id="defs3463" />
  <sodipodi:namedview
     id="base"
     pagecolor="#ffffff"
     bordercolor="#666666"
     borderopacity="1.0"
     inkscape:pageopacity="0.0"
     inkscape:pageshadow="2"
     inkscape:zoom="0.29029174"
     inkscape:cx="-72.558074"
     inkscape:cy="228.94873"
     inkscape:document-units="px"
     inkscape:current-layer="layer1"
     showgrid="false"
     fit-margin-top="0"
     fit-margin-left="0"
     fit-margin-right="0"
     fit-margin-bottom="0"
     inkscape:window-width="855"
     inkscape:window-height="651"
     inkscape:window-x="20"
     inkscape:window-y="20"
     inkscape:window-maximized="0" />
  <metadata
     id="metadata3466">
    <rdf:RDF>
      <cc:Work
         rdf:about="">
        <dc:format>image/svg+xml</dc:format>
        <dc:type
           rdf:resource="http://purl.org/dc/dcmitype/StillImage" />
        <dc:title></dc:title>
      </cc:Work>
    </rdf:RDF>
  </metadata>
  <g
     inkscape:label="Layer 1"
     inkscape:groupmode="layer"
     id="layer1"
     transform="translate(-176.20766,-386.31091)">
    <rect
       style="fill:#333333;fill-opacity:1;stroke:none"
       id="rect4780"
       width="400"
       height="375"
       x="176.20766"
       y="386.31091" />
    <g
       id="g4782"
       transform="matrix(7.3228097,0,0,7.4715804,-1965.5767,-4142.429)">
      <g
         transform="matrix(0.93479385,0,0,0.93479385,101.76897,56.867262)"
         id="g4499-9-0">
        <g
           transform="matrix(1.0041657,0,0,0.7346238,34.184783,85.481737)"
           style="font-size:53.80222321px;font-style:normal;font-variant:normal;font-weight:normal;font-stretch:normal;line-height:125%;letter-spacing:-1.3290801px;word-spacing:0px;fill:#ffffff;fill-opacity:1;stroke:none;font-family:Bebas Neue;-inkscape-font-specification:Bebas Neue"
           id="text4602-2-3-8">
          <path
             d="m 172.07054,717.21121 4.66975,0 0,-29.71663 -4.66975,0 0,29.71663"
             id="path4347-7-5"
             inkscape:connector-curvature="0" />
          <path
             d="m 186.73097,694.62657 c 0,8.49046 9.12725,9.63669 9.12725,15.74982 0,2.12261 -0.93396,2.88675 -2.41979,2.88675 -1.48583,0 -2.41978,-0.76414 -2.41978,-2.88675 l 0,-2.12262 -4.41504,0 0,1.82545 c 0,4.75466 2.37733,7.47161 6.96218,7.47161 4.58485,0 6.96218,-2.71695 6.96218,-7.47161 0,-8.49046 -9.12725,-9.63669 -9.12725,-15.74981 0,-2.12262 0.84905,-2.92922 2.33488,-2.92922 1.48583,0 2.33488,0.8066 2.33488,2.92922 l 0,1.23111 4.41504,0 0,-0.93395 c 0,-4.75466 -2.33488,-7.47161 -6.87728,-7.47161 -4.54239,0 -6.87727,2.71695 -6.87727,7.47161"
             id="path4349-4-7"
             inkscape:connector-curvature="0" />
          <path
             d="m 215.06105,694.32941 c 0,-2.12261 0.93395,-2.92922 2.41977,-2.92922 1.48584,0 2.41979,0.80661 2.41979,2.92922 l 0,16.04698 c 0,2.12262 -0.93395,2.92921 -2.41979,2.92921 -1.48582,0 -2.41977,-0.80659 -2.41977,-2.92921 l 0,-16.04698 m -4.66976,15.74981 c 0,4.75466 2.50469,7.47161 7.08953,7.47161 4.58486,0 7.08954,-2.71695 7.08954,-7.47161 l 0,-15.45265 c 0,-4.75465 -2.50468,-7.47161 -7.08954,-7.47161 -4.58484,0 -7.08953,2.71696 -7.08953,7.47161 l 0,15.45265"
             id="path4351-3-63"
             inkscape:connector-curvature="0" />
        </g>
        <path
           style="fill:#ffffff;fill-opacity:1;stroke:none"
           d="m 240.34848,598.03037 -2.99846,3.38585 2.99846,3.44719 3.30204,0 -2.94325,-3.44719 2.94325,-3.38585 z"
           id="path4450-36-0"
           inkscape:connector-curvature="0"
           sodipodi:nodetypes="ccccccc" />
        <path
           style="fill:#ffffff;fill-opacity:1;stroke:none"
           d="m 216.7653,598.03037 2.99847,3.38585 -2.99847,3.44719 -3.30203,0 2.94324,-3.44719 -2.94324,-3.38585 z"
           id="path4450-3-4-0"
           inkscape:connector-curvature="0"
           sodipodi:nodetypes="ccccccc" />
      </g>
      <path
         inkscape:connector-curvature="0"
         style="fill:#ffffff;fill-opacity:1;stroke:none"
         d="m 560.1875,515.53125 0,23.3125 53.21875,0 0,-23.3125 -53.21875,0 z m 2.5,2.625 4.0625,0 c 2.74373,0 4.09375,1.57696 4.09375,4.46875 l 0,2.34375 c 0,2.89178 -1.35002,4.46875 -4.09375,4.46875 l -1.3125,0 0,6.78125 -2.75,0 0,-18.0625 z m 9.40625,0 2.75,0 0,18.0625 -2.75,0 0,-18.0625 z m 4.71875,0 2.4375,0 0,10.8125 2.8125,-10.8125 3.4375,0 0,18.0625 -2.46875,0 0,-13.0625 -3.40625,13.0625 -2.8125,0 0,-18.0625 z m 10.6875,0 2.75,0 0,7.875 3.59375,-7.875 2.71875,0 -3.8125,8.0625 3.8125,10 -2.8125,0 -2.65625,-7.1875 -0.84375,1.65625 0,5.53125 -2.75,0 0,-18.0625 z m 10.3125,0 2.75,0 0,7.875 3.59375,-7.875 2.75,0 -3.8125,8.0625 3.8125,10 -2.8125,0 -2.6875,-7.1875 -0.84375,1.65625 0,5.53125 -2.75,0 0,-18.0625 z m 10.34375,0 2.75,0 0,18.0625 -2.75,0 0,-18.0625 z m -42.71875,2.59375 0,6.125 1.3125,0 c 0.873,0 1.34375,-0.42777 1.34375,-1.71875 l 0,-2.71875 c 0,-1.29098 -0.47075,-1.6875 -1.34375,-1.6875 l -1.3125,0 z"
         transform="matrix(0.92562021,0,0,0.92562021,-223.38396,154.87771)"
         id="rect3412" />
    </g>
  </g>
</svg>
